<?xml version="1.0" encoding="utf-8"?>
<!-- Generator: Adobe Illustrator 28.3.0, SVG Export Plug-In . SVG Version: 6.00 Build 0)  -->
<svg version="1.1" id="Layer_1" xmlns="http://www.w3.org/2000/svg" xmlns:xlink="http://www.w3.org/1999/xlink" x="0px" y="0px"
	 viewBox="0 0 1024 256" style="enable-background:new 0 0 1024 256;" xml:space="preserve">
<style type="text/css">
	.st0{fill:#F7F7F7;}
	.st1{fill:url(#SVGID_1_);}
	.st2{fill:#CCCCCC;}
	.st3{fill:#FFD520;}
	.st4{fill:#E03A3E;}
</style>
<g>
	<g>
		<path class="st0" d="M104.46,201.68c-35.12,0-63.4-21.59-63.4-61s28.27-61,63.4-61c26.56,0,39.41,11.14,39.41,11.14l-10.28,32.55
			c0,0-11.99-10.28-26.56-10.28s-27.07,8.57-27.07,27.07c0,18.33,13.36,26.56,27.07,26.56c13.71,0,23.13-5.65,28.27-10.79
			l11.14,30.84C142.16,191.06,130.16,201.68,104.46,201.68z"/>
		<path class="st0" d="M147.3,140.69c0-38.55,27.41-61.17,64.25-61.17s64.25,22.62,64.25,61.17s-27.41,61-64.25,61
			S147.3,179.24,147.3,140.69z M236.74,139.83c0-16.28-9.77-27.59-25.19-27.59s-25.36,11.31-25.36,27.59s9.94,27.59,25.36,27.59
			S236.74,156.11,236.74,139.83z"/>
		<path class="st0" d="M287.79,81.4h38.72v42.84h32.21V81.4h38.72v118.23h-38.72v-43.69h-32.21v43.69h-38.72V81.4z"/>
		<path class="st0" d="M409.45,140.69c0-38.55,27.41-61.17,64.25-61.17c36.84,0,64.25,22.62,64.25,61.17s-27.42,61-64.25,61
			C436.86,201.68,409.45,179.24,409.45,140.69z M498.89,139.83c0-16.28-9.77-27.59-25.19-27.59s-25.36,11.31-25.36,27.59
			s9.94,27.59,25.36,27.59S498.89,156.11,498.89,139.83z"/>
		<path class="st0" d="M635.62,89.97c8.57,6,14.56,16.28,14.56,29.13c0,12.25-3.8,20.48-8.2,26.01c-4.22,5.3-8.99,8.12-11.5,9.63
			l26.56,44.89h-44.55l-18.85-39.41h-4.97v39.41h-38.72V81.4h51.4C615.91,81.4,627.05,83.97,635.62,89.97z M606.83,129.03
			c1.88-1.37,4.28-3.08,4.28-8.22c0-5.14-2.61-6.8-4.28-8.05c-1.75-1.32-4.28-2.23-8.57-2.23h-9.77v20.56h9.77
			C602.55,131.09,605.29,130.23,606.83,129.03z"/>
		<path class="st0" d="M653.61,111.56V81.4h94.41v30.16h-27.93v88.07h-38.72v-88.07H653.61z"/>
	</g>
	<g>
		<g>
			
				<radialGradient id="SVGID_1_" cx="1201.3593" cy="-513.8389" r="82.342" gradientTransform="matrix(0.8911 0 0 -0.8911 -596.3051 -317.4412)" gradientUnits="userSpaceOnUse">
				<stop  offset="0" style="stop-color:#FFFFFF"/>
				<stop  offset="0.5149" style="stop-color:#FDFDFD"/>
				<stop  offset="0.7003" style="stop-color:#F6F6F6"/>
				<stop  offset="0.8325" style="stop-color:#EBEBEB"/>
				<stop  offset="0.9387" style="stop-color:#DADADA"/>
				<stop  offset="1" style="stop-color:#CCCCCC"/>
			</radialGradient>
			<path class="st1" d="M474.23,213.81c-40.45,0-73.38-32.91-73.38-73.36s32.91-73.38,73.38-73.38c40.45,0,73.38,32.91,73.38,73.38
				C547.61,180.9,514.67,213.81,474.23,213.81z"/>
		</g>
		<g>
			<path class="st2" d="M474.23,213.81c-40.45,0-73.38-32.91-73.38-73.36s32.91-73.38,73.38-73.38c40.45,0,73.38,32.91,73.38,73.38
				C547.61,180.9,514.67,213.81,474.23,213.81z M474.23,68.05c-39.92,0-72.4,32.47-72.4,72.4s32.47,72.4,72.4,72.4
				s72.4-32.47,72.4-72.4S514.15,68.05,474.23,68.05z"/>
		</g>
		<path class="st3" d="M547.1,138.83c0,0.33-1.29,1.42-2.67,2.25c-0.04,0.02-0.07,0.04-0.11,0.07c-1.88,1.03-4.55,1.99-7.87,2.86
			c-3.39,0.9-7.6,1.7-12.22,2.4c-4.63,0.7-9.77,1.25-15.32,1.73c0,0,0,0.02,0,0c-7.1,0.63-11.56,0.9-17.22,1.18
			c-6.01,0.24-12.24,0.37-18.57,0.37c0,0.81,0,1.62,0,2.43c0,5.68,0.02,11.12,0.04,16.24c0.15,27.99,0.17,27.97,1.03,44.99
			c40.25,0,72.88-32.63,72.88-72.88C547.1,140.45,547.1,139.4,547.1,138.83z"/>
		<g>
			<path d="M473.16,152.12c0,5.68,0.02,11.12,0.04,16.24c11.69,11.08,11.69,11.08,16.54,15.95c1.29-9.24,2.01-20.3,1.99-32.54
				c0-0.81,0-1.62-0.02-2.43c-7.39,0.28-12.24,0.37-18.57,0.37C473.16,150.5,473.16,151.31,473.16,152.12z"/>
			<path d="M499.9,196.74c-2.56-4.15-4.87-6.86-10.16-12.41c-2.49,17.74-6.91,28.67-12.35,28.91c0.46-0.02,1.18-0.07,1.64-0.09
				c0.59-0.04,1.29-0.11,1.86-0.15C488.43,212.32,494.92,206.56,499.9,196.74z"/>
			<path d="M508.05,167c0.02-0.11-4.2,21.9-8.17,29.74c2.29,4.39,2.38,6.16,1.46,9.05c7.08-5.38,12.91-13.46,16.94-23.51
				C515.7,177.03,513.95,174.24,508.05,167z"/>
			<path d="M487.18,212.19c1.6-0.28,1.51-0.31,4.44-0.96l1.75-0.5c5.38-1.66,6.32-2.51,8-5c-4.81,3.63-9.94,5.83-15.67,6.73
				L487.18,212.19z"/>
			<path d="M519.59,194.32c10.51-11.91,16.94-28.71,16.91-47.9c0-0.81-0.02-1.62-0.04-2.4c-3.39,0.9-7.6,1.7-12.22,2.4
				c0.07,0.81,0.09,1.64,0.09,2.45c0.02,12.48-2.1,23.82-5.94,33.39C520.55,187.81,520.58,190.12,519.59,194.32z"/>
			<path d="M508.93,148.14c-7.1,0.63-11.56,0.9-17.22,1.18c9.99,10.38,12.11,12.83,16.32,17.66c0.59-5.16,0.92-10.62,0.9-16.35
				C508.95,149.83,508.95,148.95,508.93,148.14z"/>
		</g>
		<path d="M458.25,71.33c4.06-1.64,7.95-3.34,15.84-3.8l0,0C468.74,68.03,463.19,69.5,458.25,71.33"/>
		<g>
			<path class="st4" d="M523.02,146.4c-3.8-0.5-6.97-6.93-5.31-13.44c-5.33,3.69-11.34-3.89-10.47-10.9
				c0.46-3.71,2.91-7.01,7.15-5.48c-1.73-5.94-3.89-11.54-6.42-16.72c-3.76,0.48-7.89,0.87-12.28,1.18
				c3.89,5.88,0.07,11.36-5.35,10.49c-3.93-0.63-7.63-4.76-6.6-9.68c-3.19,2.21-9.75,1.33-10.36-5.64
				c-0.17,14.82-0.26,33.78-0.24,53.49c19.36,0.2,42.07-1.88,51.09-3.3c0,0,0,0.02,0,0C523.87,146.44,523.39,146.44,523.02,146.4z"
				/>
		</g>
		<g>
			<path class="st4" d="M427.13,161.04c5.42-2.1,12.24,7.28,9.83,13.53c-1.09,2.88-3.96,3.69-6.93,1.94
				c1.62,5.46,3.71,10.47,6.21,14.88c3.82,0.52,8.13,0.98,12.85,1.33c-3.78-4.65-0.74-8.46,4.3-8.22c4.33,0.22,10.05,3.82,8.83,8.74
				c3.89-1.77,10.49-0.33,11.28,4.76c-0.2-10.93-0.33-26.99-0.35-45.91c0-0.83,0-1.6,0-2.43c-6.14,0.02-12.39-0.22-18.6-0.48
				c-13.18-0.55-22.14-1.31-33.17-3.19c0,0.02,0-0.04,0,0C427.05,147.97,428.6,156.36,427.13,161.04z"/>
		</g>
		<path class="st4" d="M508.75,93.88L508.75,93.88L508.75,93.88c0.02,0,0.04,0,0.04,0h0.02c0,0,0.02,0,0.04,0
			c0.7-0.11,1.38-0.24,2.01-0.35c4.17-0.76,13.64-3.04,13.64-5.79c0,0,3.71,3.71,6.42,8.89c0.33,0.57,0.55,1.07,0.83,1.9
			c0.33,0.92,0.52,1.97,0.48,2.49c-0.13,1.57-1.11,1.6-2.16,1.14c-0.11-0.04-0.22-0.09-0.33-0.13c-3.74-1.68-4.96-5.11-5.7-6.53
			c-1.9,0.61-5.05,1.97-7.67,2.47c-0.31,0.07-0.85,0.2-1.18,0.24c3.08,5.07,6.03,11.14,8.13,17.02c3.67-3.78,9.42,3.23,9.7,9.99
			c0.15,3.98-1.62,7.5-5.24,6.23c2.91,5.38,1.97,13.26-3.54,14.99c-0.92-17.68-3.91-33.39-15.56-52.49l0,0l0,0"/>
		<path class="st4" d="M508.69,93.91L508.69,93.91L508.69,93.91L508.69,93.91L508.69,93.91c-9.29-14.18-16.61-19.34-26.03-23.05
			c-1.88-0.74-8.26-3.23-8.59-3.32l0.02,0.07l0,0c1.66,2.43,4.98,3.87,5.7,4.09c-0.2,0.87-0.04,2.64,3.02,4.87
			c0.48,0.35,0.94,0.61,1.38,0.83c4.74,2.47,5.79,0.55,6.01-0.22c0.02-0.02,0.07-0.04,0.09-0.07c1.44,1.07,4.26,3.32,7.36,6.86
			c1.79,2.14,3.47,4.02,4.76,5.9c-2.93,0.37-6.8,0.72-10.64,0.98c-0.22-4.65-3.56-6.97-5.68-7.76c-4.61-1.73-6.14,3.71-4.13,7.54
			c-3.65-1.97-7.98-0.22-8.59,5.55C487.82,96.11,497.72,95.48,508.69,93.91L508.69,93.91L508.69,93.91"/>
		<path class="st4" d="M509.58,80.71c-0.04-0.07-0.09-0.33-0.02-0.5c0.04-0.2,0.22-0.35,0.22-0.35s0.07-0.2,0.35-0.35
			c0.74-0.44,2.95-0.63,9.05,3.56c-12.63-9.94-26.24-14.03-37.78-15.17c-1.64-0.2-4.65-0.31-4.65-0.31
			c3.67,0.33,6.16,1.31,6.75,1.51c0.46,0.15,0.83,0.42,1.07,0.61c0.02,0,0.04,0,0.04,0c0.72,0.09,1.57,0.22,2.6,0.52
			c1.14,0.33,3.02,1.03,4.68,1.81c1.68,0.79,4.17,2.58,4.17,3.56c-0.39,0.24-0.5,0.31-1.64,0c4.3,3.08,10.49,8.87,14.14,13.13
			c2.51-0.48,6.25-1.01,7.98-1.6C516.42,87.26,510.83,83.07,509.58,80.71z"/>
		<path class="st4" d="M435.48,195.45c-6.25-1.14-9.83-2.08-12.24-3.3c-0.39-0.2-0.52-0.22-0.61-0.22c-0.04,0-3.56-3.61-6.64-7.6
			c-2.23-2.91-4.13-6.18-4.33-6.49c0.02,0.02,0.5,0,0.81,0.11c3.28,1.09,8.39,10.03,8.44,10.12c2.03,0.76,4.65,1.46,7.85,2.1
			c-2.99-4.5-5.51-9.57-7.43-15.1c-4.55,2.29-10.36-9.72-8.5-14.79c0.37-1.03,1.57-3.19,4.65-0.85c-2.32-5.35-1.68-13.37,3.91-13.37
			C421.52,163.77,423.94,179.04,435.48,195.45"/>
		<path class="st4" d="M473.4,199.06c-0.63,2.53-4.17,4.94-9.18,2.88c2.34,3.08,0.31,5.77-3.8,5c-3.21-0.59-7.01-3.15-7.3-5.73
			c-3.96-0.31-7.58-0.68-10.8-1.14c3.06,3.56,6.47,6.45,10.14,8.61c0.44-0.17,1.11-0.13,3.3,0.63c2.8,0.98,5.46,2.29,8.24,3.28
			l-0.59-0.09c-2.12-0.33-2.62-0.44-3.82-0.68c-5.38-1.05-14.73-4.11-24.13-16.41l0,0l0,0l0,0c11.32,1.75,22.33,2.49,38.02,2.6
			C473.48,198.34,473.46,198.78,473.4,199.06"/>
		<path class="st3" d="M474.07,67.53c-39.07,0-71.98,31.9-72.72,71.5l0.02,0.07c0.02,0.11,0.39,0.85,1.92,1.81l0,0l0,0
			c1.53,0.96,3.8,1.99,6.8,2.75c3.71,0.96,7.58,1.73,11.21,2.34l0.07,0.02c11.04,1.88,19.99,2.64,33.17,3.19
			c6.21,0.26,12.43,0.48,18.6,0.48c0-3.71-0.02-24.89,0.15-45.34c0.02-2.64,0.07-5.4,0.09-8.17
			C473.53,82.89,473.81,69.32,474.07,67.53L474.07,67.53z"/>
		<path d="M508.99,204.52c-4.13,2.32-4.92,2.36-10.47,4.65c-1.53,0.63-2.97,1.01-4.57,1.44c9.83-2.64,23.27-13.66,25.63-16.32
			c-1.2,2.64-2.1,4.41-4.98,6.75C513.8,201.7,510.33,203.78,508.99,204.52z"/>
		<path d="M410.11,143.69c-3.04-0.74-5.27-1.79-6.8-2.75c0.81-26.38,15.47-49.78,36.8-62.59c-5.05,4.48-7.3,7.15-9.83,13.2
			C418.28,105.29,410.66,123.8,410.11,143.69"/>
		<path d="M440.18,78.3c5.35-3.85,8.39-6.66,16.87-8.7c5.94-1.42,11.14-2.05,17.04-2.05l0,0C461.79,68.08,450.25,72.27,440.18,78.3"
			/>
		<path d="M436.29,148.06c-5.33-0.52-10.36-1.22-14.88-2.01c0.31-13.22,3.06-25.9,7.85-37.11c1.86,7.36,3.43,11.34,8.63,20.06
			C436.92,135.19,436.38,141.57,436.29,148.06"/>
		<path d="M473.4,96.2c-0.09,8.02-0.13,16.28-0.15,22.64c-0.04,6.32-0.07,10.88-0.07,11.76c-7.17-7.52-11.01-11.73-16.26-18.4
			c3.52-22.66,9.88-40.56,17.15-44.67l0,0l0,0C473.81,69.69,473.55,82.56,473.4,96.2z"/>
		<g>
			<path d="M447.81,95.33c-4.59,9.66-8,21.24-9.9,33.67c4.46,6.62,7.21,10.49,16.08,20.21c0.09-13.02,1.16-25.68,2.93-37.04
				C451.59,104.9,449.88,101.44,447.81,95.33z"/>
		</g>
		<path d="M544.31,141.15c0.02,0.81,0.04,1.62,0.04,2.4c0.04,25.76-12.54,47.2-32.23,59.07l-0.52,0.39
			c9.24-5.68,20.93-15.3,28.39-31.18c7.98-15.67,7.1-33,7.1-33C546.71,139.53,545.53,140.43,544.31,141.15z"/>
		<g>
			<path d="M458.25,71.33c-10.64,4.17-20.21,11.3-27.95,20.19c-2.12,6.62-2.12,10.34-1.05,17.42c4.72-11.06,11.32-20.63,19.14-27.77
				C450.78,76.99,452.29,74.5,458.25,71.33z"/>
		</g>
		<path d="M447.78,95.39c-1.31-5.94-1.42-8.98,0.57-14.16c7.6-7.01,16.39-12.22,25.72-13.68C463.85,70.28,454.58,81.01,447.78,95.39
			"/>
	</g>
	<g>
		<path class="st4" d="M820.07,85.7c0-9.81-7.36-14.71-19.62-14.71s-28.2,6.13-40.46,18.39l-20.84-38.01c0,0,24.52-23.3,67.44-23.3
			s66.21,20.85,66.21,50.27s-18.88,43.9-35.56,57.63l-26.98,22.07h71.12v41.69H747.72l-6.13-34.33l55.18-46.59
			C815.9,102.62,820.07,95.51,820.07,85.7z"/>
	</g>
	<g>
		<path class="st3" d="M899.55,42.56h63.03v96.87h20.36v41.69h-20.36v30.66h-53.22v-30.66h-79.7v-40.46L899.55,42.56z M910.59,95.29
			l-31.88,45.37h31.88V95.29z"/>
	</g>
</g>
</svg>
